%
M48
M72
T01C0.03200
T02C0.03543
T03C0.03937
T04C0.04000
T05C0.05200
T06C0.06600
T07C0.20000
%
T01
X103000Y53000
X103000Y73000
X143000Y73000
X143000Y53000
X163000Y43000
X178000Y43000
X198000Y43000
X213000Y43000
X243000Y53000
X243000Y63000
X243000Y73000
X273000Y73000
X273000Y63000
X273000Y53000
X278000Y90500
X278000Y130500
X323000Y108000
X323000Y68000
X378000Y68000
X378000Y78000
X383000Y218000
X393000Y218000
X403000Y218000
X393000Y258000
X433000Y258000
X433000Y318000
X433000Y328000
X433000Y338000
X433000Y348000
X433000Y358000
X433000Y368000
X433000Y378000
X433000Y388000
X433000Y398000
X433000Y408000
X433000Y418000
X433000Y428000
X433000Y438000
X433000Y448000
X438000Y473000
X403000Y448000
X403000Y438000
X403000Y428000
X403000Y418000
X403000Y408000
X403000Y398000
X403000Y388000
X403000Y378000
X403000Y368000
X403000Y358000
X403000Y348000
X403000Y338000
X403000Y328000
X403000Y318000
X353000Y353500
X353000Y372500
X323000Y373000
X313000Y373000
X313000Y348000
X323000Y348000
X248000Y363000
X228000Y363000
X228000Y353000
X228000Y373000
X203000Y383000
X203000Y413000
X228000Y423000
X228000Y433000
X228000Y443000
X248000Y433000
X248000Y463000
X228000Y493000
X228000Y503000
X228000Y513000
X248000Y503000
X203000Y483000
X203000Y453000
X248000Y393000
X203000Y343000
X203000Y313000
X228000Y303000
X228000Y293000
X228000Y283000
X248000Y293000
X248000Y323000
X203000Y273000
X203000Y243000
X228000Y233000
X228000Y223000
X228000Y213000
X248000Y223000
X248000Y253000
X203000Y203000
X223000Y163000
X198000Y143000
X198000Y133000
X198000Y123000
X223000Y123000
X213000Y83000
X198000Y83000
X178000Y83000
X163000Y83000
X148000Y93000
X168000Y123000
X168000Y133000
X168000Y143000
X148000Y133000
X248000Y183000
X398000Y473000
X393000Y563000
X433000Y563000
X203000Y523000
T02
X403000Y275500
X473000Y275500
X478000Y363000
X525500Y363000
X515500Y460500
X468000Y490500
X465500Y513000
X438000Y490500
X425500Y513000
X443000Y460500
X415500Y398000
X413000Y378000
X465500Y178000
X465500Y135500
T03
X498000Y383000
X508000Y383000
X518000Y383000
X528000Y383000
T04
X433000Y593000
X423000Y593000
X413000Y593000
X118000Y628000
X98000Y628000
X108000Y583000
X108000Y563000
X53000Y568000
X53000Y578000
X53000Y608000
X53000Y618000
X53000Y628000
X338000Y158000
X368000Y158000
X518000Y128000
X518000Y118000
X518000Y108000
X118000Y123000
X118000Y133000
X118000Y143000
T05
X124500Y199500
X124500Y246500
X124500Y269500
X124500Y316500
X124500Y339500
X124500Y386500
X124500Y409500
X124500Y456500
X124500Y479500
X124500Y526500
X172500Y526500
X180500Y503000
X172500Y479500
X172500Y456500
X180500Y433000
X172500Y409500
X172500Y386500
X180500Y363000
X172500Y339500
X172500Y316500
X180500Y293000
X172500Y269500
X172500Y246500
X180500Y223000
X172500Y199500
T06
X73000Y207300
X73000Y222900
X73000Y238500
X73000Y277300
X73000Y292900
X73000Y308500
X73000Y347300
X73000Y362900
X73000Y378500
X73000Y417300
X73000Y432900
X73000Y448500
X73000Y487300
X73000Y502900
X73000Y518500
X73000Y140800
X73000Y125200
X73000Y75800
X73000Y60200
T07
X63000Y30500
X350500Y230500
X535500Y43000
X323000Y473000
X533000Y665500
X43000Y670500
M30
